<?xml version="1.0" encoding="UTF-8" standalone="no"?>
<!-- Created with Inkscape (http://www.inkscape.org/) -->

<svg
   version="1.1"
   id="svg1"
   width="1440"
   height="1440"
   viewBox="0 0 1440 1440"
   sodipodi:docname="ucl.svg"
   inkscape:version="1.4.3 (0d15f75042, 2025-12-25)"
   xmlns:inkscape="http://www.inkscape.org/namespaces/inkscape"
   xmlns:sodipodi="http://sodipodi.sourceforge.net/DTD/sodipodi-0.dtd"
   xmlns="http://www.w3.org/2000/svg"
   xmlns:svg="http://www.w3.org/2000/svg">
  <defs
     id="defs1" />
  <sodipodi:namedview
     id="namedview1"
     pagecolor="#ffffff"
     bordercolor="#000000"
     borderopacity="0.25"
     inkscape:showpageshadow="2"
     inkscape:pageopacity="0.0"
     inkscape:pagecheckerboard="0"
     inkscape:deskcolor="#d1d1d1"
     showgrid="false"
     inkscape:zoom="0.27059091"
     inkscape:cx="251.30186"
     inkscape:cy="700.31916"
     inkscape:window-width="1854"
     inkscape:window-height="1029"
     inkscape:window-x="30"
     inkscape:window-y="35"
     inkscape:window-maximized="1"
     inkscape:current-layer="g1" />
  <g
     inkscape:groupmode="layer"
     inkscape:label="Image"
     id="g1"
     transform="translate(2.2609182,-2.3500499)">
    <path
       style="fill:#983bfe;fill-opacity:1"
       d="M -2.2609182,722.35005 V 2.3500499 H 717.73908 1437.7391 V 722.35005 1442.35 H 717.73908 -2.2609182 Z M 284.40575,1058.35 V 890.35004 h -35.33334 -35.33333 v 167.99996 168 h 35.33333 35.33334 z m 188,0 V 890.35004 h -40.66667 -40.66667 v 167.99996 168 h 40.66667 40.66667 z m 188,0 V 890.35004 h -45.33334 -45.33333 v 167.99996 168 h 45.33333 45.33334 z m 186.66666,0 V 890.35004 h -50 -50 v 167.99996 168 h 50 50 z m 187.99999,0 V 890.35004 h -54.66665 -54.66667 v 167.99996 168 h 54.66667 54.66665 z m 186.6667,0 V 890.35004 h -58.6667 -58.6666 v 167.99996 168 h 58.6666 58.6667 z m -841.0109,-363.49055 163.65579,-53.1761 0.0109,-31.6666 0.0109,-31.6667 h 13.85532 13.85533 l 0.64079,-29.6667 0.64079,-29.6666 3.52924,-12.5243 c 13.51254,-47.9523 50.3032,-86.6492 95.97479,-100.94757 9.49046,-2.97117 7.7485,0.98655 20.18563,-45.8615 5.54849,-20.9 10.98166,-41.15 12.07371,-45 l 1.98556,-7 h 10.59213 10.59217 l 1.98556,7 c 1.09205,3.85 6.52522,24.1 12.07371,45 12.43713,46.84805 10.69517,42.89033 20.18563,45.8615 45.67159,14.29837 82.46225,52.99527 95.97479,100.94757 l 3.52924,12.5243 0.64079,29.6666 0.64079,29.6667 h 13.85533 13.85532 l 0.0108,31.6667 0.0108,31.6666 163.65589,53.1732 c 90.0107,29.2453 164.4059,53.4453 165.3225,53.7778 l 1.6667,0.6046 V 483.79449 218.35005 h -504.00002 -504 v 265.44444 265.44446 l 1.66667,-0.6017 c 0.91666,-0.331 75.31177,-24.531 165.32245,-53.7778 z"
       id="path1" />
  </g>
</svg>
