<?xml version="1.0" encoding="UTF-8" standalone="no"?>
<!-- Created with Inkscape (http://www.inkscape.org/) -->

<svg
   version="1.1"
   id="svg1"
   width="1440"
   height="1440"
   viewBox="0 0 1440 1440"
   sodipodi:docname="icon.svg"
   inkscape:version="1.4.3 (0d15f75042, 2025-12-25)"
   xmlns:inkscape="http://www.inkscape.org/namespaces/inkscape"
   xmlns:sodipodi="http://sodipodi.sourceforge.net/DTD/sodipodi-0.dtd"
   xmlns="http://www.w3.org/2000/svg"
   xmlns:svg="http://www.w3.org/2000/svg">
  <defs
     id="defs1" />
  <sodipodi:namedview
     id="namedview1"
     pagecolor="#ffffff"
     bordercolor="#000000"
     borderopacity="0.25"
     inkscape:showpageshadow="2"
     inkscape:pageopacity="0.0"
     inkscape:pagecheckerboard="0"
     inkscape:deskcolor="#d1d1d1"
     showgrid="false"
     inkscape:zoom="0.088195717"
     inkscape:cx="2086.2691"
     inkscape:cy="1303.9182"
     inkscape:window-width="1920"
     inkscape:window-height="1080"
     inkscape:window-x="0"
     inkscape:window-y="0"
     inkscape:window-maximized="0"
     inkscape:current-layer="g1" />
  <g
     inkscape:groupmode="layer"
     inkscape:label="Image"
     id="g1"
     transform="translate(2.2609182,-2.3500499)">
    <rect
       style="fill:#ffffff;fill-opacity:1;stroke:#e8e4d4;stroke-width:2.00313"
       id="rect1"
       width="1437.9968"
       height="1437.9968"
       x="-1.2593532"
       y="3.351615" />
    <path
       id="path1"
       style="fill:#983bfe;fill-opacity:1"
       d="M 198.73908 3.3500499 C 87.939084 3.3500499 -1.2609182 92.55005 -1.2609182 203.35005 L -1.2609182 1243.35 C -1.2609182 1347.3233 77.285594 1432.2763 178.52033 1442.35 L 717.73908 1442.35 L 1258.9578 1442.35 C 1353.5459 1432.9377 1428.3271 1358.155 1437.7391 1263.5668 L 1437.7391 722.35005 L 1437.7391 183.13325 C 1427.6656 81.898153 1342.7126 3.3500499 1238.7391 3.3500499 L 198.73908 3.3500499 z M 213.73908 218.35005 L 717.73908 218.35005 L 1221.7391 218.35005 L 1221.7391 483.79536 L 1221.7391 749.23872 L 1220.0731 748.63521 C 1219.1565 748.30271 1144.7615 724.10121 1054.7508 694.85591 L 891.09455 641.68403 L 891.08283 610.01607 L 891.07307 578.35005 L 877.2176 578.35005 L 863.36213 578.35005 L 862.7215 548.68403 L 862.08088 519.01607 L 858.55158 506.49263 C 845.03904 458.54033 808.24856 419.84373 762.57697 405.54536 C 753.08651 402.57419 754.82856 406.53208 742.39143 359.68403 C 736.84294 338.78403 731.40926 318.53403 730.31721 314.68403 L 728.33088 307.68403 L 717.73908 307.68403 L 707.14728 307.68403 L 705.16096 314.68403 C 704.06891 318.53403 698.63523 338.78403 693.08674 359.68403 C 680.64961 406.53208 682.39165 402.57419 672.90119 405.54536 C 627.2296 419.84373 590.43912 458.54033 576.92658 506.49263 L 573.39728 519.01607 L 572.75666 548.68403 L 572.11603 578.35005 L 558.26057 578.35005 L 544.4051 578.35005 L 544.39533 610.01607 L 544.38361 641.68403 L 380.72736 694.85982 C 290.71668 724.10662 216.32176 748.30616 215.4051 748.63716 L 213.73908 749.23872 L 213.73908 483.79536 L 213.73908 218.35005 z M 213.73908 890.35005 L 249.07307 890.35005 L 284.4051 890.35005 L 284.4051 1058.35 L 284.4051 1226.35 L 249.07307 1226.35 L 213.73908 1226.35 L 213.73908 1058.35 L 213.73908 890.35005 z M 391.07307 890.35005 L 431.73908 890.35005 L 472.4051 890.35005 L 472.4051 1058.35 L 472.4051 1226.35 L 431.73908 1226.35 L 391.07307 1226.35 L 391.07307 1058.35 L 391.07307 890.35005 z M 569.73908 890.35005 L 615.07307 890.35005 L 660.4051 890.35005 L 660.4051 1058.35 L 660.4051 1226.35 L 615.07307 1226.35 L 569.73908 1226.35 L 569.73908 1058.35 L 569.73908 890.35005 z M 747.07307 890.35005 L 797.07307 890.35005 L 847.07307 890.35005 L 847.07307 1058.35 L 847.07307 1226.35 L 797.07307 1226.35 L 747.07307 1226.35 L 747.07307 1058.35 L 747.07307 890.35005 z M 925.73908 890.35005 L 980.4051 890.35005 L 1035.0731 890.35005 L 1035.0731 1058.35 L 1035.0731 1226.35 L 980.4051 1226.35 L 925.73908 1226.35 L 925.73908 1058.35 L 925.73908 890.35005 z M 1104.4051 890.35005 L 1163.0731 890.35005 L 1221.7391 890.35005 L 1221.7391 1058.35 L 1221.7391 1226.35 L 1163.0731 1226.35 L 1104.4051 1226.35 L 1104.4051 1058.35 L 1104.4051 890.35005 z " />
  </g>
</svg>
