<?xml version="1.0" encoding="UTF-8" standalone="no"?>
<svg
   width="40"
   height="40"
   viewBox="0 0 40 40"
   fill="none"
   version="1.1"
   id="svg1"
   sodipodi:docname="icon.svg"
   xml:space="preserve"
   inkscape:version="1.3.2 (091e20ef0f, 2023-11-25, custom)"
   xmlns:inkscape="http://www.inkscape.org/namespaces/inkscape"
   xmlns:sodipodi="http://sodipodi.sourceforge.net/DTD/sodipodi-0.dtd"
   xmlns="http://www.w3.org/2000/svg"
   xmlns:svg="http://www.w3.org/2000/svg"><defs
     id="defs1"><clipPath
       clipPathUnits="userSpaceOnUse"
       id="clipPath20"><path
         d="M 0,3370.394 H 2383.937 V 0 H 0 Z"
         transform="translate(-1996.8643,-2988.3065)"
         id="path20" /></clipPath><clipPath
       clipPathUnits="userSpaceOnUse"
       id="clipPath18"><path
         d="M 0,3370.394 H 2383.937 V 0 H 0 Z"
         transform="translate(-1987.6563,-3014.9208)"
         id="path18" /></clipPath><clipPath
       clipPathUnits="userSpaceOnUse"
       id="clipPath16"><path
         d="M 0,3370.394 H 2383.937 V 0 H 0 Z"
         transform="translate(-1965.6982,-3004.1683)"
         id="path16" /></clipPath><clipPath
       clipPathUnits="userSpaceOnUse"
       id="clipPath14"><path
         d="M 0,3370.394 H 2383.937 V 0 H 0 Z"
         transform="translate(-1971.6523,-3004.1683)"
         id="path14" /></clipPath><clipPath
       clipPathUnits="userSpaceOnUse"
       id="clipPath12"><path
         d="M 0,3370.394 H 2383.937 V 0 H 0 Z"
         transform="translate(-1977.6075,-3004.1683)"
         id="path12" /></clipPath><clipPath
       clipPathUnits="userSpaceOnUse"
       id="clipPath10"><path
         d="M 0,3370.394 H 2383.937 V 0 H 0 Z"
         transform="translate(-1983.5616,-3004.1683)"
         id="path10" /></clipPath><clipPath
       clipPathUnits="userSpaceOnUse"
       id="clipPath8"><path
         d="M 0,3370.394 H 2383.937 V 0 H 0 Z"
         transform="translate(-1989.5166,-3004.1683)"
         id="path8" /></clipPath><clipPath
       clipPathUnits="userSpaceOnUse"
       id="clipPath6"><path
         d="M 0,3370.394 H 2383.937 V 0 H 0 Z"
         transform="translate(-1995.4698,-3004.1683)"
         id="path6" /></clipPath><clipPath
       clipPathUnits="userSpaceOnUse"
       id="clipPath4"><path
         d="M 0,3370.394 H 2383.937 V 0 H 0 Z"
         transform="translate(-1997.3691,-3007.5038)"
         id="path4" /></clipPath><clipPath
       clipPathUnits="userSpaceOnUse"
       id="clipPath2"><path
         d="M 0,3370.394 H 2383.937 V 0 H 0 Z"
         transform="translate(0,-3370.3939)"
         id="path2" /></clipPath></defs><sodipodi:namedview
     id="namedview1"
     pagecolor="#ffffff"
     bordercolor="#000000"
     borderopacity="0.25"
     inkscape:showpageshadow="2"
     inkscape:pageopacity="0.0"
     inkscape:pagecheckerboard="0"
     inkscape:deskcolor="#d1d1d1"
     inkscape:zoom="5.7045383"
     inkscape:cx="-56.008039"
     inkscape:cy="40.757023"
     inkscape:window-width="1920"
     inkscape:window-height="1080"
     inkscape:window-x="0"
     inkscape:window-y="0"
     inkscape:window-maximized="0"
     inkscape:current-layer="svg1" /><rect
     width="40"
     height="40"
     rx="5"
     fill="#5D3FD3"
     id="rect1" /><g
     inkscape:label="Layer 1"
     id="layer1"
     transform="matrix(2.2179229,0,0,2.2179229,-121.2829,-306.29442)"
     style="fill:#f9f9f9"><g
       id="g1"
       style="fill:#f9f9f9"><path
         id="path3"
         d="m 0,0 c -0.066,0.014 -18.169,3.902 -18.169,3.902 0,0 -18.126,-3.894 -18.16,-3.902 -0.102,-0.02 -0.066,-0.103 -0.066,-0.103 l 0.249,-0.93 0.055,0.002 -0.006,-0.002 c 0,0 0.282,0.035 0.444,-0.225 l 0.268,-1.492 c 0,0 0.009,-0.104 0.116,-0.104 h 0.655 32.892 0.661 c 0.092,0 0.103,0.077 0.103,0.077 l 0.271,1.492 c 0.155,0.293 0.459,0.252 0.459,0.252 l -0.004,0.002 0.045,-0.002 0.249,0.93 C 0.062,-0.103 0.1,-0.02 0,0"
         style="fill:#f9f9f9;fill-opacity:1;fill-rule:nonzero;stroke:none"
         transform="matrix(0.35277776,0,0,-0.35277776,70.108514,147.35554)"
         clip-path="url(#clipPath4)" /><path
         id="path5"
         d="M 0,0 C 0.021,0 0.039,0.017 0.039,0.042 V 0.505 C 0.039,0.529 0.021,0.509 0,0.509 h -2.763 c -0.02,0 -0.039,0.02 -0.039,-0.004 V 0.042 C -2.802,0.017 -2.783,0 -2.763,0 l 0.118,-0.001 c 0.055,0 0.059,-0.056 0.059,-0.109 0,-0.07 0.03,-0.428 0.282,-0.645 0.036,-0.032 0.024,-0.12 -0.053,-0.12 H -2.44 c -0.066,0 -0.068,-0.042 -0.05,-0.075 0.023,-0.042 0.029,-0.164 0.029,-0.222 v -0.201 c 0,-0.037 0.005,-0.066 0.042,-0.066 h 0.041 c 0,0 0.029,0.003 0.029,-0.03 v -0.04 -10.15 c -0.032,-0.03 -0.141,-0.14 -0.148,-0.148 -0.009,-0.008 -0.016,-0.022 -0.016,-0.037 v -0.172 c 0,-0.012 -0.003,-0.029 -0.011,-0.037 -0.007,-0.008 -0.026,-0.012 -0.041,-0.012 h -0.129 c -0.021,0 -0.039,-0.021 -0.039,-0.041 V -12.4 h 2.704 v 0.294 c 0,0.02 -0.019,0.041 -0.039,0.041 h -0.129 c -0.016,0 -0.03,0.004 -0.039,0.012 -0.009,0.008 -0.014,0.025 -0.014,0.037 v 0.172 c 0,0.012 -0.002,0.024 -0.016,0.036 -0.015,0.014 -0.104,0.105 -0.148,0.149 v 10.15 0.04 c 0,0.033 0.028,0.03 0.028,0.03 h 0.04 c 0.036,0 0.039,0.029 0.039,0.066 v 0.201 c 0,0.058 0.011,0.18 0.032,0.222 0.023,0.033 0.018,0.075 -0.048,0.075 h -0.083 c -0.078,0 -0.089,0.089 -0.053,0.12 0.252,0.206 0.277,0.567 0.277,0.636 0,0.062 -0.002,0.118 0.066,0.118 z"
         style="fill:#f9f9f9;fill-opacity:1;fill-rule:nonzero;stroke:none"
         transform="matrix(0.35277776,0,0,-0.35277776,69.438456,148.53223)"
         clip-path="url(#clipPath6)" /><path
         id="path7"
         d="M 0,0 C 0.021,0 0.04,0.017 0.04,0.042 V 0.505 C 0.04,0.529 0.021,0.509 0,0.509 h -2.764 c -0.02,0 -0.036,0.02 -0.036,-0.004 V 0.042 C -2.8,0.017 -2.784,0 -2.764,0 l 0.118,-0.001 c 0.055,0 0.059,-0.056 0.059,-0.109 0,-0.07 0.034,-0.428 0.282,-0.645 0.034,-0.032 0.021,-0.12 -0.053,-0.12 h -0.083 c -0.066,0 -0.071,-0.042 -0.05,-0.075 0.023,-0.042 0.029,-0.164 0.029,-0.222 v -0.201 c 0,-0.037 0.005,-0.066 0.042,-0.066 h 0.04 c 0,0 0.027,0.003 0.027,-0.03 v -0.04 -10.15 c -0.027,-0.03 -0.138,-0.14 -0.145,-0.148 -0.009,-0.008 -0.016,-0.022 -0.016,-0.037 v -0.172 c 0,-0.012 0,-0.029 -0.01,-0.037 -0.008,-0.008 -0.024,-0.012 -0.039,-0.012 h -0.128 c -0.023,0 -0.04,-0.021 -0.04,-0.041 V -12.4 h 2.701 v 0.294 c 0,0.02 -0.019,0.041 -0.039,0.041 h -0.129 c -0.016,0 -0.031,0.004 -0.039,0.012 -0.009,0.008 -0.014,0.025 -0.014,0.037 v 0.172 c 0,0.012 -0.002,0.024 -0.016,0.036 -0.011,0.014 -0.1,0.105 -0.149,0.149 v 10.15 0.04 c 0,0.033 0.029,0.03 0.029,0.03 h 0.04 c 0.035,0 0.039,0.029 0.039,0.066 v 0.201 c 0,0.058 0.01,0.18 0.031,0.222 0.021,0.033 0.015,0.075 -0.046,0.075 h -0.084 c -0.078,0 -0.089,0.089 -0.053,0.12 0.253,0.206 0.277,0.567 0.277,0.636 0,0.062 0,0.118 0.066,0.118 z"
         style="fill:#f9f9f9;fill-opacity:1;fill-rule:nonzero;stroke:none"
         transform="matrix(0.35277776,0,0,-0.35277776,67.338326,148.53223)"
         clip-path="url(#clipPath8)" /><path
         id="path9"
         d="M 0,0 C 0.023,0 0.039,0.017 0.039,0.042 V 0.505 C 0.039,0.529 0.023,0.509 0,0.509 h -2.761 c -0.024,0 -0.04,0.02 -0.04,-0.004 V 0.042 C -2.801,0.017 -2.785,0 -2.761,0 l 0.116,-0.001 c 0.055,0 0.058,-0.056 0.058,-0.109 0,-0.07 0.031,-0.428 0.283,-0.645 0.034,-0.032 0.021,-0.12 -0.053,-0.12 h -0.085 c -0.064,0 -0.066,-0.042 -0.048,-0.075 0.023,-0.042 0.028,-0.164 0.028,-0.222 v -0.201 c 0,-0.037 0.006,-0.066 0.04,-0.066 h 0.044 c 0,0 0.027,0.003 0.027,-0.03 v -0.04 -10.15 c -0.028,-0.03 -0.139,-0.14 -0.146,-0.148 -0.009,-0.008 -0.016,-0.022 -0.016,-0.037 v -0.172 c 0,-0.012 -0.004,-0.029 -0.01,-0.037 -0.01,-0.008 -0.028,-0.012 -0.04,-0.012 H -2.69 c -0.022,0 -0.04,-0.021 -0.04,-0.041 V -12.4 h 2.701 v 0.294 c 0,0.02 -0.021,0.041 -0.041,0.041 h -0.127 c -0.016,0 -0.032,0.004 -0.039,0.012 -0.007,0.008 -0.013,0.025 -0.013,0.037 v 0.172 c 0,0.012 -0.003,0.024 -0.014,0.036 -0.014,0.014 -0.104,0.105 -0.148,0.149 v 10.15 c 0,0 -0.004,0.014 -0.004,0.04 0,0.033 0.029,0.03 0.029,0.03 h 0.036 c 0.039,0 0.045,0.029 0.045,0.066 v 0.201 c 0,0.058 0.008,0.18 0.033,0.222 0.016,0.033 0.015,0.075 -0.05,0.075 h -0.084 c -0.078,0 -0.087,0.089 -0.053,0.12 0.255,0.206 0.277,0.567 0.277,0.636 0,0.062 0,0.118 0.067,0.118 z"
         style="fill:#f9f9f9;fill-opacity:1;fill-rule:nonzero;stroke:none"
         transform="matrix(0.35277776,0,0,-0.35277776,65.237508,148.53223)"
         clip-path="url(#clipPath10)" /><path
         id="path11"
         d="M 0,0 C 0.023,0 0.039,0.017 0.039,0.042 V 0.505 C 0.039,0.529 0.023,0.509 0,0.509 h -2.761 c -0.024,0 -0.04,0.02 -0.04,-0.004 V 0.042 C -2.801,0.017 -2.785,0 -2.761,0 l 0.116,-0.001 c 0.057,0 0.058,-0.056 0.058,-0.109 0,-0.07 0.031,-0.428 0.283,-0.645 0.037,-0.032 0.021,-0.12 -0.051,-0.12 h -0.084 c -0.067,0 -0.069,-0.042 -0.05,-0.075 0.022,-0.042 0.027,-0.164 0.027,-0.222 v -0.201 c 0,-0.037 0.007,-0.066 0.043,-0.066 h 0.039 c 0,0 0.031,0.003 0.031,-0.03 v -0.04 -10.15 c -0.031,-0.03 -0.14,-0.14 -0.15,-0.148 -0.007,-0.008 -0.014,-0.022 -0.014,-0.037 v -0.172 c 0,-0.012 -0.006,-0.029 -0.013,-0.037 -0.007,-0.008 -0.025,-0.012 -0.04,-0.012 h -0.125 c -0.024,0 -0.039,-0.021 -0.039,-0.041 V -12.4 h 2.701 v 0.294 c 0,0.02 -0.02,0.041 -0.041,0.041 h -0.129 c -0.014,0 -0.03,0.004 -0.037,0.012 -0.011,0.008 -0.013,0.025 -0.013,0.037 v 0.172 c 0,0.012 -0.003,0.024 -0.017,0.036 -0.015,0.014 -0.104,0.105 -0.145,0.149 v 10.15 0.04 c 0,0.033 0.025,0.03 0.025,0.03 h 0.034 c 0.04,0 0.045,0.029 0.045,0.066 v 0.201 c 0,0.058 0.01,0.18 0.031,0.222 0.022,0.033 0.015,0.075 -0.046,0.075 h -0.082 c -0.08,0 -0.091,0.089 -0.055,0.12 0.255,0.206 0.277,0.567 0.277,0.636 0,0.062 0,0.118 0.064,0.118 z"
         style="fill:#f9f9f9;fill-opacity:1;fill-rule:nonzero;stroke:none"
         transform="matrix(0.35277776,0,0,-0.35277776,63.137034,148.53223)"
         clip-path="url(#clipPath12)" /><path
         id="path13"
         d="M 0,0 C 0.024,0 0.04,0.017 0.04,0.042 V 0.505 C 0.04,0.529 0.024,0.509 0,0.509 h -2.76 c -0.02,0 -0.04,0.02 -0.04,-0.004 V 0.042 C -2.8,0.017 -2.78,0 -2.76,0 l 0.118,-0.001 c 0.056,0 0.056,-0.056 0.056,-0.109 0,-0.07 0.034,-0.428 0.282,-0.645 0.038,-0.032 0.023,-0.12 -0.05,-0.12 h -0.084 c -0.066,0 -0.073,-0.042 -0.05,-0.075 0.022,-0.042 0.029,-0.164 0.029,-0.222 v -0.201 c 0,-0.037 0.002,-0.066 0.041,-0.066 h 0.039 c 0,0 0.031,0.003 0.031,-0.03 v -0.04 -10.15 c -0.029,-0.03 -0.14,-0.14 -0.149,-0.148 -0.007,-0.008 -0.015,-0.022 -0.015,-0.037 v -0.172 c 0,-0.012 -0.006,-0.029 -0.013,-0.037 -0.007,-0.008 -0.023,-0.012 -0.037,-0.012 H -2.69 c -0.021,0 -0.039,-0.021 -0.039,-0.041 V -12.4 h 2.699 v 0.294 c 0,0.02 -0.018,0.041 -0.039,0.041 h -0.129 c -0.014,0 -0.03,0.004 -0.037,0.012 -0.007,0.008 -0.013,0.025 -0.013,0.037 v 0.172 c 0,0.012 -0.003,0.024 -0.014,0.036 -0.014,0.014 -0.107,0.105 -0.148,0.149 v 10.15 c 0,0 -0.004,0.014 -0.004,0.04 0,0.033 0.029,0.03 0.029,0.03 h 0.038 c 0.039,0 0.041,0.029 0.041,0.066 v 0.201 c 0,0.058 0.01,0.18 0.031,0.222 0.022,0.033 0.017,0.075 -0.046,0.075 h -0.084 c -0.079,0 -0.089,0.089 -0.053,0.12 0.255,0.206 0.278,0.567 0.278,0.636 0,0.062 -0.003,0.118 0.062,0.118 z"
         style="fill:#f9f9f9;fill-opacity:1;fill-rule:nonzero;stroke:none"
         transform="matrix(0.35277776,0,0,-0.35277776,61.036189,148.53223)"
         clip-path="url(#clipPath14)" /><path
         id="path15"
         d="M 0,0 C 0.024,0 0.04,0.017 0.04,0.042 V 0.505 C 0.04,0.529 0.024,0.509 0,0.509 H -2.761 C -2.784,0.509 -2.8,0.529 -2.8,0.505 V 0.042 C -2.8,0.017 -2.784,0 -2.761,0 l 0.118,-0.001 c 0.056,0 0.057,-0.056 0.057,-0.109 0,-0.07 0.034,-0.428 0.286,-0.645 0.03,-0.032 0.019,-0.12 -0.053,-0.12 h -0.085 c -0.064,0 -0.069,-0.042 -0.05,-0.075 0.024,-0.042 0.029,-0.164 0.029,-0.222 v -0.201 c 0,-0.037 0.005,-0.066 0.041,-0.066 h 0.043 c 0,0 0.025,0.003 0.025,-0.03 0,-0.026 0.002,-0.04 0.002,-0.04 v -10.15 c -0.031,-0.03 -0.14,-0.14 -0.149,-0.148 -0.007,-0.008 -0.015,-0.022 -0.015,-0.037 v -0.172 c 0,-0.012 -0.002,-0.029 -0.01,-0.037 -0.009,-0.008 -0.024,-0.012 -0.04,-0.012 H -2.69 c -0.021,0 -0.041,-0.021 -0.041,-0.041 V -12.4 h 2.702 v 0.294 c 0,0.02 -0.017,0.041 -0.039,0.041 h -0.128 c -0.016,0 -0.032,0.004 -0.039,0.012 -0.007,0.008 -0.013,0.025 -0.013,0.037 v 0.172 c 0,0.012 -0.003,0.024 -0.014,0.036 -0.015,0.014 -0.104,0.105 -0.148,0.149 v 10.15 c 0,0 -0.004,0.014 -0.004,0.04 0,0.033 0.029,0.03 0.029,0.03 h 0.038 c 0.035,0 0.041,0.029 0.041,0.066 v 0.201 c 0,0.058 0.01,0.18 0.035,0.222 0.018,0.033 0.014,0.075 -0.05,0.075 h -0.084 c -0.08,0 -0.089,0.089 -0.053,0.12 0.255,0.206 0.278,0.567 0.278,0.636 0,0.062 0,0.118 0.062,0.118 z"
         style="fill:#f9f9f9;fill-opacity:1;fill-rule:nonzero;stroke:none"
         transform="matrix(0.35277776,0,0,-0.35277776,58.935715,148.53223)"
         clip-path="url(#clipPath16)" /><path
         id="path17"
         d="M 0,0 H -0.285 C -0.36,0 -0.359,0.062 -0.359,0.062 v 0.306 c 0,0.078 -0.076,0.078 -0.076,0.078 h -0.28 c -0.077,0 -0.075,0.07 -0.075,0.07 v 0.282 c 0,0 0.003,0.062 -0.068,0.062 h -0.168 c -0.06,0 -0.12,0.049 -0.125,0.13 -0.011,0.386 0.125,3.11 -1.317,5.081 -1.128,1.693 -2.69,2.552 -3.551,2.953 -0.015,0.367 -0.539,0.507 -0.766,0.586 -0.122,0.041 -0.227,0.089 -0.227,0.197 0,0.005 -0.001,0.119 -0.001,0.125 0,0.114 0.104,0.159 0.262,0.155 0.049,-0.003 0.083,0.039 0.083,0.072 v 0.33 c 0,0.048 -0.042,0.1 -0.11,0.1 -0.112,0 -0.245,10e-4 -0.314,10e-4 -0.073,0 -0.108,0.067 -0.108,0.109 v 0.166 c 0,0.096 -0.078,0.152 -0.133,0.179 v 2.034 c 0,0.068 0.053,0.059 0.098,0.059 0.006,0 0.014,0 0.023,0.003 h 0.005 c 0.026,0 0.05,0.024 0.05,0.049 v 0.194 c 0,0.029 -0.024,0.049 -0.05,0.049 h -0.092 c -0.031,0.014 -0.054,0.057 -0.054,0.148 0,0.094 0.028,0.138 0.068,0.146 h 0.078 c 0.026,0 0.05,0.022 0.05,0.047 v 0.198 c 0,0.027 -0.024,0.048 -0.05,0.048 h -0.105 c -0.045,0.007 -0.078,0.026 -0.123,0.062 -0.345,0.274 -0.696,0.669 -0.696,0.728 v 0.073 c 0,0.042 -0.043,0.124 -0.137,0.124 -0.09,0 -0.079,0.096 -0.029,0.096 0.032,0 0.039,0.008 0.039,0.054 v 0.132 c 0,0.058 -0.178,0.302 -0.178,0.302 h -0.009 c 0,0 -0.18,-0.244 -0.18,-0.302 v -0.132 c 0,-0.046 0.01,-0.054 0.044,-0.054 0.046,0 0.06,-0.096 -0.032,-0.096 -0.091,0 -0.134,-0.082 -0.134,-0.124 0,-0.039 -0.002,-0.042 -0.002,-0.073 0,-0.059 -0.351,-0.454 -0.696,-0.728 -0.044,-0.036 -0.078,-0.055 -0.123,-0.062 h -0.105 c -0.025,0 -0.046,-0.021 -0.046,-0.048 v -0.198 c 0,-0.025 0.021,-0.047 0.046,-0.047 h 0.082 c 0.036,-0.008 0.066,-0.052 0.066,-0.146 0,-0.091 -0.025,-0.134 -0.055,-0.148 h -0.093 c -0.025,0 -0.046,-0.02 -0.046,-0.049 v -0.194 c 0,-0.025 0.021,-0.049 0.046,-0.049 h 0.005 c 0.009,-0.003 0.016,-0.003 0.024,-0.003 0.046,0 0.099,0.009 0.099,-0.059 V 11.044 C -9.603,11.017 -9.68,10.961 -9.68,10.865 v -0.166 c 0,-0.042 -0.038,-0.109 -0.111,-0.109 -0.064,0 -0.198,-10e-4 -0.312,-10e-4 -0.066,0 -0.111,-0.052 -0.111,-0.1 v -0.33 c 0,-0.033 0.036,-0.075 0.086,-0.072 0.157,0.004 0.262,-0.041 0.262,-0.155 0,-0.006 -0.003,-0.12 -0.003,-0.125 0,-0.108 -0.107,-0.156 -0.225,-0.197 C -10.321,9.531 -10.845,9.391 -10.86,9.024 -11.725,8.623 -13.284,7.764 -14.412,6.071 -15.854,4.1 -15.718,1.376 -15.728,0.99 -15.734,0.909 -15.791,0.86 -15.852,0.86 h -0.167 c -0.07,0 -0.07,-0.062 -0.07,-0.062 V 0.516 c 0,0 10e-4,-0.07 -0.074,-0.07 h -0.282 c 0,0 -0.077,0 -0.077,-0.078 V 0.062 c 0,0 0.005,-0.062 -0.074,-0.062 h -0.284 c 0,0 -0.078,0 -0.078,-0.081 V -0.41 c 0,-0.036 0.021,-0.044 0.049,-0.047 0.084,-0.011 0.257,-0.089 0.257,-0.276 0,-0.322 0.195,-0.352 0.274,-0.352 v -1.187 c 0,-0.276 -0.214,-0.385 -0.338,-0.414 -0.023,-0.004 -0.057,-0.033 -0.057,-0.065 v -1.222 l 8.328,1.838 h 0.009 l 8.329,-1.838 v 1.222 c 0,0.032 -0.035,0.061 -0.06,0.065 -0.12,0.029 -0.336,0.138 -0.336,0.414 v 1.187 c 0.079,0 0.273,0.03 0.273,0.352 0,0.187 0.175,0.265 0.259,0.276 0.03,0.003 0.05,0.011 0.05,0.047 v 0.329 C 0.079,0 0,0 0,0"
         style="fill:#f9f9f9;fill-opacity:1;fill-rule:nonzero;stroke:none"
         transform="matrix(0.35277776,0,0,-0.35277776,66.682054,144.73899)"
         clip-path="url(#clipPath18)" /><path
         id="path19"
         d="M 0,0 V 2.434 H -1.424 V 3.497 H -33.897 V 2.436 h -1.424 V 0.002 h -1.434 V -2.456 L 1.436,-2.458 V 0 Z"
         style="fill:#f9f9f9;fill-opacity:1;fill-rule:nonzero;stroke:none"
         transform="matrix(0.35277776,0,0,-0.35277776,69.930423,154.12792)"
         clip-path="url(#clipPath20)" /></g></g></svg>
